<svg xmlns="http://www.w3.org/2000/svg" width="36" height="36" viewBox="0 0 36 36"><g><g><path fill="#d5a71c" d="M4 7.646L29.333.176c2.21-.652 4 .58 4 2.752v18.348c0 2.172-1.79 4.46-4 5.111L4 33.857c-2.21.652-4-.58-4-2.752V12.757c0-2.171 1.79-4.46 4-5.111z"/></g><g><path fill="#ecbb25" d="M6.666 9.612L32 2.142c2.209-.652 4 .58 4 2.751v18.349c0 2.171-1.791 4.46-4 5.111l-25.334 7.47c-2.209.652-4-.58-4-2.752V14.723c0-2.171 1.791-4.46 4-5.111z"/></g><g><path fill="#fff" d="M27.075 17.887c.553.667.183 1.892-.767 2.525l-1.041.696a.718.718 0 0 0-.325.532l-.058 1.103c-.052 1.003-1.025 1.98-2.006 2.011l-1.078.034c-.193.007-.4.132-.525.322l-.702 1.052c-.637.956-1.841 1.312-2.48.729l-.701-.64c-.126-.114-.333-.12-.526-.012l-1.078.6c-.979.544-1.954.142-2.006-.832l-.057-1.07a.342.342 0 0 0-.325-.34l-1.042-.083c-.947-.075-1.32-1.08-.767-2.074l.609-1.09c.11-.197.11-.408 0-.54l-.609-.733c-.553-.666-.182-1.892.767-2.525l1.042-.695a.72.72 0 0 0 .325-.532l.057-1.103c.052-1.003 1.025-1.98 2.006-2.011l1.078-.035c.193-.006.4-.132.526-.321l.701-1.052c.638-.957 1.841-1.312 2.48-.73l.702.64c.125.115.332.12.525.013l1.078-.6c.98-.545 1.954-.142 2.006.831l.057 1.07c.01.192.138.326.326.34l1.041.083c.947.075 1.32 1.081.767 2.075l-.609 1.09c-.109.196-.109.408 0 .54zm-.912.847L25.555 18c-.344-.414-.344-1.08 0-1.696l.608-1.09c.176-.316.058-.636-.243-.66l-1.042-.083c-.589-.047-.99-.467-1.023-1.071l-.057-1.07c-.016-.309-.326-.438-.638-.264l-1.077.6c-.609.338-1.258.323-1.654-.038l-.702-.64c-.202-.185-.585-.073-.788.232l-.702 1.052c-.396.594-1.045.99-1.653 1.01l-1.078.034c-.311.01-.621.32-.638.64l-.057 1.103c-.033.624-.434 1.28-1.023 1.672l-1.041.696c-.302.201-.42.59-.244.803l.608.733c.344.414.344 1.08 0 1.696l-.608 1.09c-.176.316-.058.636.244.66l1.041.082c.589.047.99.468 1.023 1.072l.057 1.07c.017.309.326.437.638.263l1.078-.598c.136-.077.275-.135.413-.175.474-.14.934-.068 1.24.212l.702.64c.203.184.585.072.788-.232l.702-1.052c.396-.595 1.045-.992 1.654-1.01l1.077-.035c.312-.01.622-.32.638-.64l.057-1.103c.033-.623.434-1.28 1.023-1.672l1.042-.695c.3-.201.42-.591.243-.803zm-4.114-2.502l-5.074 6.44a.78.78 0 0 1-.385.268.449.449 0 0 1-.384-.042c-.212-.145-.212-.48 0-.75l5.074-6.44c.213-.27.557-.37.77-.226.212.145.212.48 0 .75zm-3.828 1.28c0 .585-.487 1.204-1.087 1.38-.6.177-1.087-.155-1.087-.74s.487-1.204 1.087-1.38c.6-.176 1.088.156 1.087.74zm3.988 2.716c0 .585-.488 1.204-1.088 1.38-.6.176-1.087-.156-1.087-.74 0-.585.487-1.205 1.087-1.38.6-.177 1.088.155 1.088.74z"/></g></g></svg>